<?xml version="1.0" encoding="UTF-8" standalone="no"?>
<!-- Created with Inkscape (http://www.inkscape.org/) -->

<svg
   xmlns:dc="http://purl.org/dc/elements/1.1/"
   xmlns:cc="http://creativecommons.org/ns#"
   xmlns:rdf="http://www.w3.org/1999/02/22-rdf-syntax-ns#"
   xmlns:svg="http://www.w3.org/2000/svg"
   xmlns="http://www.w3.org/2000/svg"
   xmlns:sodipodi="http://sodipodi.sourceforge.net/DTD/sodipodi-0.dtd"
   xmlns:inkscape="http://www.inkscape.org/namespaces/inkscape"
   width="20.006966mm"
   height="20.155178mm"
   viewBox="0 0 20.006966 20.155178"
   version="1.1"
   id="svg43"
   inkscape:version="0.92.1 r15371"
   sodipodi:docname="linkedin.svg">
  <defs
     id="defs37">
    <clipPath
       clipPathUnits="userSpaceOnUse"
       id="clipPath3681">
      <path
         style="fill:#808080;fill-opacity:1;stroke:#ff7300;stroke-width:0;stroke-miterlimit:4;stroke-dasharray:none;stroke-opacity:1"
         d="m 30.593893,158.90242 c -0.49198,-0.0578 -0.933644,-0.36499 -1.154055,-0.80268 -0.02246,-0.0446 -0.06179,-0.14319 -0.08737,-0.21905 l -0.04651,-0.13792 v -8.89199 c 0,-8.61058 0.0011,-8.89558 0.03012,-9.00557 0.041,-0.15465 0.152964,-0.38345 0.250532,-0.512 0.202477,-0.26678 0.495911,-0.45355 0.859451,-0.54704 0.103037,-0.0265 0.612423,-0.0281 8.863383,-0.0281 h 8.754062 l 0.132964,0.0355 c 0.343916,0.0918 0.606017,0.256 0.811781,0.50851 0.101603,0.12467 0.233008,0.38442 0.274783,0.54315 0.02887,0.10968 0.02989,0.41929 0.02989,9.00557 v 8.89199 l -0.04651,0.13792 c -0.169958,0.50396 -0.530743,0.84478 -1.044405,0.98661 l -0.158502,0.0438 -8.681045,0.002 c -4.774573,0.001 -8.729427,-0.004 -8.788561,-0.0106 z m 4.772564,-7.82053 v -4.55957 h -1.517155 -1.517153 v 4.55957 4.55958 h 1.517153 1.517155 z m 4.709406,1.8214 c 0.0044,-2.5663 0.0065,-2.74672 0.03393,-2.87417 0.06591,-0.30656 0.262268,-0.6441 0.514103,-0.88375 0.230807,-0.21965 0.48567,-0.35202 0.787239,-0.40888 0.195651,-0.0369 0.559705,-0.0255 0.74403,0.0234 0.65524,0.17356 1.014523,0.74588 1.080791,1.72165 0.0094,0.1379 0.01609,1.25446 0.01622,2.69762 l 2.4e-4,2.46233 h 1.517743 1.517743 l -0.0061,-2.89233 c -0.0063,-3.00963 -0.005,-2.952 -0.07724,-3.40346 -0.278365,-1.73959 -1.298768,-2.80033 -2.895161,-3.00959 -0.257661,-0.0338 -0.74631,-0.0335 -1.012332,5.2e-4 -0.917721,0.11751 -1.610741,0.55527 -2.165631,1.36797 l -0.05941,0.087 v -0.63464 -0.63464 h -1.513096 -1.513099 l -0.0038,4.55957 -0.0038,4.55958 h 1.516459 1.516462 z m -5.813253,-7.65445 c 0.625676,-0.12576 1.071833,-0.51709 1.243701,-1.09088 0.06055,-0.20215 0.07212,-0.54489 0.0259,-0.76731 -0.09831,-0.47309 -0.362368,-0.83463 -0.770292,-1.05466 -0.233523,-0.12596 -0.482761,-0.18993 -0.799028,-0.20508 -0.8705,-0.0417 -1.559605,0.41273 -1.762702,1.16239 -0.03213,0.11858 -0.03736,0.17658 -0.03736,0.41376 0,0.32348 0.0274,0.45581 0.144452,0.69773 0.231023,0.47747 0.679182,0.78599 1.26093,0.86806 0.140189,0.0198 0.546441,0.006 0.694407,-0.024 z"
         id="path3683"
         inkscape:connector-curvature="0" />
    </clipPath>
    <clipPath
       clipPathUnits="userSpaceOnUse"
       id="clipPath3685">
      <path
         style="fill:#808080;fill-opacity:1;stroke:#ff7300;stroke-width:0;stroke-miterlimit:4;stroke-dasharray:none;stroke-opacity:1"
         d="m 30.593893,158.90242 c -0.49198,-0.0578 -0.933644,-0.36499 -1.154055,-0.80268 -0.02246,-0.0446 -0.06179,-0.14319 -0.08737,-0.21905 l -0.04651,-0.13792 v -8.89199 c 0,-8.61058 0.0011,-8.89558 0.03012,-9.00557 0.041,-0.15465 0.152964,-0.38345 0.250532,-0.512 0.202477,-0.26678 0.495911,-0.45355 0.859451,-0.54704 0.103037,-0.0265 0.612423,-0.0281 8.863383,-0.0281 h 8.754062 l 0.132964,0.0355 c 0.343916,0.0918 0.606017,0.256 0.811781,0.50851 0.101603,0.12467 0.233008,0.38442 0.274783,0.54315 0.02887,0.10968 0.02989,0.41929 0.02989,9.00557 v 8.89199 l -0.04651,0.13792 c -0.169958,0.50396 -0.530743,0.84478 -1.044405,0.98661 l -0.158502,0.0438 -8.681045,0.002 c -4.774573,0.001 -8.729427,-0.004 -8.788561,-0.0106 z m 4.772564,-7.82053 v -4.55957 h -1.517155 -1.517153 v 4.55957 4.55958 h 1.517153 1.517155 z m 4.709406,1.8214 c 0.0044,-2.5663 0.0065,-2.74672 0.03393,-2.87417 0.06591,-0.30656 0.262268,-0.6441 0.514103,-0.88375 0.230807,-0.21965 0.48567,-0.35202 0.787239,-0.40888 0.195651,-0.0369 0.559705,-0.0255 0.74403,0.0234 0.65524,0.17356 1.014523,0.74588 1.080791,1.72165 0.0094,0.1379 0.01609,1.25446 0.01622,2.69762 l 2.4e-4,2.46233 h 1.517743 1.517743 l -0.0061,-2.89233 c -0.0063,-3.00963 -0.005,-2.952 -0.07724,-3.40346 -0.278365,-1.73959 -1.298768,-2.80033 -2.895161,-3.00959 -0.257661,-0.0338 -0.74631,-0.0335 -1.012332,5.2e-4 -0.917721,0.11751 -1.610741,0.55527 -2.165631,1.36797 l -0.05941,0.087 v -0.63464 -0.63464 h -1.513096 -1.513099 l -0.0038,4.55957 -0.0038,4.55958 h 1.516459 1.516462 z m -5.813253,-7.65445 c 0.625676,-0.12576 1.071833,-0.51709 1.243701,-1.09088 0.06055,-0.20215 0.07212,-0.54489 0.0259,-0.76731 -0.09831,-0.47309 -0.362368,-0.83463 -0.770292,-1.05466 -0.233523,-0.12596 -0.482761,-0.18993 -0.799028,-0.20508 -0.8705,-0.0417 -1.559605,0.41273 -1.762702,1.16239 -0.03213,0.11858 -0.03736,0.17658 -0.03736,0.41376 0,0.32348 0.0274,0.45581 0.144452,0.69773 0.231023,0.47747 0.679182,0.78599 1.26093,0.86806 0.140189,0.0198 0.546441,0.006 0.694407,-0.024 z"
         id="path3687"
         inkscape:connector-curvature="0" />
    </clipPath>
    <clipPath
       clipPathUnits="userSpaceOnUse"
       id="clipPath3689">
      <path
         style="fill:#808080;fill-opacity:1;stroke:#ff7300;stroke-width:0;stroke-miterlimit:4;stroke-dasharray:none;stroke-opacity:1"
         d="m 30.593893,158.90242 c -0.49198,-0.0578 -0.933644,-0.36499 -1.154055,-0.80268 -0.02246,-0.0446 -0.06179,-0.14319 -0.08737,-0.21905 l -0.04651,-0.13792 v -8.89199 c 0,-8.61058 0.0011,-8.89558 0.03012,-9.00557 0.041,-0.15465 0.152964,-0.38345 0.250532,-0.512 0.202477,-0.26678 0.495911,-0.45355 0.859451,-0.54704 0.103037,-0.0265 0.612423,-0.0281 8.863383,-0.0281 h 8.754062 l 0.132964,0.0355 c 0.343916,0.0918 0.606017,0.256 0.811781,0.50851 0.101603,0.12467 0.233008,0.38442 0.274783,0.54315 0.02887,0.10968 0.02989,0.41929 0.02989,9.00557 v 8.89199 l -0.04651,0.13792 c -0.169958,0.50396 -0.530743,0.84478 -1.044405,0.98661 l -0.158502,0.0438 -8.681045,0.002 c -4.774573,0.001 -8.729427,-0.004 -8.788561,-0.0106 z m 4.772564,-7.82053 v -4.55957 h -1.517155 -1.517153 v 4.55957 4.55958 h 1.517153 1.517155 z m 4.709406,1.8214 c 0.0044,-2.5663 0.0065,-2.74672 0.03393,-2.87417 0.06591,-0.30656 0.262268,-0.6441 0.514103,-0.88375 0.230807,-0.21965 0.48567,-0.35202 0.787239,-0.40888 0.195651,-0.0369 0.559705,-0.0255 0.74403,0.0234 0.65524,0.17356 1.014523,0.74588 1.080791,1.72165 0.0094,0.1379 0.01609,1.25446 0.01622,2.69762 l 2.4e-4,2.46233 h 1.517743 1.517743 l -0.0061,-2.89233 c -0.0063,-3.00963 -0.005,-2.952 -0.07724,-3.40346 -0.278365,-1.73959 -1.298768,-2.80033 -2.895161,-3.00959 -0.257661,-0.0338 -0.74631,-0.0335 -1.012332,5.2e-4 -0.917721,0.11751 -1.610741,0.55527 -2.165631,1.36797 l -0.05941,0.087 v -0.63464 -0.63464 h -1.513096 -1.513099 l -0.0038,4.55957 -0.0038,4.55958 h 1.516459 1.516462 z m -5.813253,-7.65445 c 0.625676,-0.12576 1.071833,-0.51709 1.243701,-1.09088 0.06055,-0.20215 0.07212,-0.54489 0.0259,-0.76731 -0.09831,-0.47309 -0.362368,-0.83463 -0.770292,-1.05466 -0.233523,-0.12596 -0.482761,-0.18993 -0.799028,-0.20508 -0.8705,-0.0417 -1.559605,0.41273 -1.762702,1.16239 -0.03213,0.11858 -0.03736,0.17658 -0.03736,0.41376 0,0.32348 0.0274,0.45581 0.144452,0.69773 0.231023,0.47747 0.679182,0.78599 1.26093,0.86806 0.140189,0.0198 0.546441,0.006 0.694407,-0.024 z"
         id="path3691"
         inkscape:connector-curvature="0" />
    </clipPath>
  </defs>
  <sodipodi:namedview
     id="base"
     pagecolor="#ffffff"
     bordercolor="#666666"
     borderopacity="1.0"
     inkscape:pageopacity="0.0"
     inkscape:pageshadow="2"
     inkscape:zoom="1"
     inkscape:cx="-39.815676"
     inkscape:cy="43.679629"
     inkscape:document-units="mm"
     inkscape:current-layer="layer1"
     showgrid="false"
     inkscape:snap-global="false"
     inkscape:window-width="2560"
     inkscape:window-height="1381"
     inkscape:window-x="1920"
     inkscape:window-y="0"
     inkscape:window-maximized="1"
     inkscape:measure-start="94.0765,582.918"
     inkscape:measure-end="114.253,590.4" />
  <metadata
     id="metadata40">
    <rdf:RDF>
      <cc:Work
         rdf:about="">
        <dc:format>image/svg+xml</dc:format>
        <dc:type
           rdf:resource="http://purl.org/dc/dcmitype/StillImage" />
        <dc:title />
      </cc:Work>
    </rdf:RDF>
  </metadata>
  <g
     inkscape:label="Layer 1"
     inkscape:groupmode="layer"
     id="layer1"
     transform="translate(-29.305958,-138.75807)">
    <path
       inkscape:connector-curvature="0"
       id="path14"
       style="fill:#006699;fill-opacity:1;fill-rule:nonzero;stroke:none;stroke-width:0.26956463"
       d="m 29.28614,140.1915 c 0,-0.79792 0.663237,-1.44514 1.481421,-1.44514 h 17.083928 c 0.818156,0 1.481418,0.64722 1.481418,1.44514 v 17.28367 c 0,0.79818 -0.663262,1.44514 -1.481418,1.44514 H 30.767561 c -0.818184,0 -1.481421,-0.64696 -1.481421,-1.44514 z"
       clip-path="url(#clipPath3689)" />
    <path
       inkscape:connector-curvature="0"
       id="path28"
       style="fill:#ffffff;fill-opacity:1;fill-rule:evenodd;stroke:none;stroke-width:0.26956463"
       d="m 35.362937,155.63404 v -9.10966 h -3.027886 v 9.10966 z M 33.84898,145.28061 c 1.055886,0 1.713085,-0.69952 1.713085,-1.57372 -0.01968,-0.89388 -0.657199,-1.57399 -1.693056,-1.57399 -1.035748,0 -1.712949,0.68011 -1.712949,1.57399 0,0.8742 0.657063,1.57372 1.673188,1.57372 h 0.01969 z"
       clip-path="url(#clipPath3685)" />
    <path
       inkscape:connector-curvature="0"
       id="path30"
       style="fill:#ffffff;fill-opacity:1;fill-rule:evenodd;stroke:none;stroke-width:0.26956463"
       d="m 37.038361,155.63404 h 3.027859 v -5.08722 c 0,-0.27226 0.01969,-0.54425 0.09963,-0.73888 0.218884,-0.54398 0.717095,-1.10737 1.553554,-1.10737 1.095644,0 1.533929,0.83538 1.533929,2.06002 v 4.87345 h 3.027617 v -5.22335 c 0,-2.79808 -1.493793,-4.10008 -3.485904,-4.10008 -1.633453,0 -2.350548,0.91302 -2.748965,1.5349 h 0.02021 v -1.32113 h -3.027848 c 0.03974,0.85479 0,9.10966 0,9.10966 z"
       clip-path="url(#clipPath3681)" />
  </g>
</svg>
