<?xml version="1.0" encoding="UTF-8" standalone="no"?>
<!DOCTYPE svg PUBLIC "-//W3C//DTD SVG 1.1//EN"
 "http://www.w3.org/Graphics/SVG/1.1/DTD/svg11.dtd">
<!-- Generated by graphviz version 2.38.0 (20140413.2041)
 -->
<!-- Title: ER Pages: 1 -->
<svg width="583pt" height="188pt"
 viewBox="0.00 0.00 583.35 188.00" xmlns="http://www.w3.org/2000/svg" xmlns:xlink="http://www.w3.org/1999/xlink">
<g id="graph0" class="graph" transform="scale(1 1) rotate(0) translate(4 184)">
<title>ER</title>
<polygon fill="white" stroke="none" points="-4,4 -4,-184 579.346,-184 579.346,4 -4,4"/>
<!-- config -->
<g id="node1" class="node"><title>config</title>
<ellipse fill="none" stroke="black" cx="215.846" cy="-162" rx="33.2948" ry="18"/>
<text text-anchor="middle" x="215.846" y="-158.3" font-family="Times,serif" font-size="14.00">config</text>
</g>
<!-- generate -->
<g id="node11" class="node"><title>generate</title>
<polygon fill="none" stroke="black" points="275.011,-108 180.893,-108 156.681,-72 250.799,-72 275.011,-108"/>
<text text-anchor="middle" x="215.846" y="-86.3" font-family="Times,serif" font-size="14.00">generate</text>
</g>
<!-- config&#45;&#45;generate -->
<g id="edge8" class="edge"><title>config&#45;&#45;generate</title>
<path fill="none" stroke="black" d="M215.846,-143.697C215.846,-132.846 215.846,-118.917 215.846,-108.104"/>
</g>
<!-- css -->
<g id="node2" class="node"><title>css</title>
<ellipse fill="none" stroke="black" cx="293.846" cy="-162" rx="27" ry="18"/>
<text text-anchor="middle" x="293.846" y="-158.3" font-family="Times,serif" font-size="14.00">css</text>
</g>
<!-- css&#45;&#45;generate -->
<g id="edge9" class="edge"><title>css&#45;&#45;generate</title>
<path fill="none" stroke="black" d="M278.436,-147.17C265.916,-135.934 248.2,-120.036 234.81,-108.019"/>
</g>
<!-- templates -->
<g id="node3" class="node"><title>templates</title>
<ellipse fill="none" stroke="black" cx="44.846" cy="-162" rx="44.6926" ry="18"/>
<text text-anchor="middle" x="44.846" y="-158.3" font-family="Times,serif" font-size="14.00">templates</text>
</g>
<!-- templates&#45;&#45;generate -->
<g id="edge10" class="edge"><title>templates&#45;&#45;generate</title>
<path fill="none" stroke="black" d="M75.0238,-148.647C104.171,-136.715 148.352,-118.629 179.437,-105.904"/>
</g>
<!-- series -->
<g id="node4" class="node"><title>series</title>
<polygon fill="none" stroke="black" points="392.846,-180 389.846,-184 368.846,-184 365.846,-180 338.846,-180 338.846,-144 392.846,-144 392.846,-180"/>
<text text-anchor="middle" x="365.846" y="-158.3" font-family="Times,serif" font-size="14.00">series</text>
</g>
<!-- article2 -->
<g id="node7" class="node"><title>article2</title>
<polygon fill="none" stroke="black" points="419.346,-108 368.346,-108 368.346,-72 425.346,-72 425.346,-102 419.346,-108"/>
<polyline fill="none" stroke="black" points="419.346,-108 419.346,-102 "/>
<polyline fill="none" stroke="black" points="425.346,-102 419.346,-102 "/>
<text text-anchor="middle" x="396.846" y="-86.3" font-family="Times,serif" font-size="14.00">article2</text>
</g>
<!-- series&#45;&#45;article2 -->
<g id="edge3" class="edge"><title>series&#45;&#45;article2</title>
<path fill="none" stroke="black" d="M373.509,-143.697C378.314,-132.846 384.483,-118.917 389.271,-108.104"/>
</g>
<!-- article3 -->
<g id="node8" class="node"><title>article3</title>
<polygon fill="none" stroke="black" points="344.346,-108 293.346,-108 293.346,-72 350.346,-72 350.346,-102 344.346,-108"/>
<polyline fill="none" stroke="black" points="344.346,-108 344.346,-102 "/>
<polyline fill="none" stroke="black" points="350.346,-102 344.346,-102 "/>
<text text-anchor="middle" x="321.846" y="-86.3" font-family="Times,serif" font-size="14.00">article3</text>
</g>
<!-- series&#45;&#45;article3 -->
<g id="edge4" class="edge"><title>series&#45;&#45;article3</title>
<path fill="none" stroke="black" d="M354.97,-143.697C348.149,-132.846 339.394,-118.917 332.597,-108.104"/>
</g>
<!-- series&#45;&#45;generate -->
<g id="edge7" class="edge"><title>series&#45;&#45;generate</title>
<path fill="none" stroke="black" d="M338.727,-148.173C335.732,-146.762 332.725,-145.349 329.846,-144 304.054,-131.915 274.934,-118.378 252.581,-108.01"/>
</g>
<!-- directory -->
<g id="node5" class="node"><title>directory</title>
<polygon fill="none" stroke="black" points="504.346,-180 501.346,-184 480.346,-184 477.346,-180 439.346,-180 439.346,-144 504.346,-144 504.346,-180"/>
<text text-anchor="middle" x="471.846" y="-158.3" font-family="Times,serif" font-size="14.00">directory</text>
</g>
<!-- article4 -->
<g id="node9" class="node"><title>article4</title>
<polygon fill="none" stroke="black" points="569.346,-108 518.346,-108 518.346,-72 575.346,-72 575.346,-102 569.346,-108"/>
<polyline fill="none" stroke="black" points="569.346,-108 569.346,-102 "/>
<polyline fill="none" stroke="black" points="575.346,-102 569.346,-102 "/>
<text text-anchor="middle" x="546.846" y="-86.3" font-family="Times,serif" font-size="14.00">article4</text>
</g>
<!-- directory&#45;&#45;article4 -->
<g id="edge1" class="edge"><title>directory&#45;&#45;article4</title>
<path fill="none" stroke="black" d="M490.385,-143.697C502.011,-132.846 516.935,-118.917 528.52,-108.104"/>
</g>
<!-- article5 -->
<g id="node10" class="node"><title>article5</title>
<polygon fill="none" stroke="black" points="494.346,-108 443.346,-108 443.346,-72 500.346,-72 500.346,-102 494.346,-108"/>
<polyline fill="none" stroke="black" points="494.346,-108 494.346,-102 "/>
<polyline fill="none" stroke="black" points="500.346,-102 494.346,-102 "/>
<text text-anchor="middle" x="471.846" y="-86.3" font-family="Times,serif" font-size="14.00">article5</text>
</g>
<!-- directory&#45;&#45;article5 -->
<g id="edge2" class="edge"><title>directory&#45;&#45;article5</title>
<path fill="none" stroke="black" d="M471.846,-143.697C471.846,-132.846 471.846,-118.917 471.846,-108.104"/>
</g>
<!-- directory&#45;&#45;generate -->
<g id="edge6" class="edge"><title>directory&#45;&#45;generate</title>
<path fill="none" stroke="black" d="M439.163,-152.063C397.782,-140.748 325.736,-121.048 274.677,-107.087"/>
</g>
<!-- article1 -->
<g id="node6" class="node"><title>article1</title>
<polygon fill="none" stroke="black" points="158.346,-180 107.346,-180 107.346,-144 164.346,-144 164.346,-174 158.346,-180"/>
<polyline fill="none" stroke="black" points="158.346,-180 158.346,-174 "/>
<polyline fill="none" stroke="black" points="164.346,-174 158.346,-174 "/>
<text text-anchor="middle" x="135.846" y="-158.3" font-family="Times,serif" font-size="14.00">article1</text>
</g>
<!-- article1&#45;&#45;generate -->
<g id="edge5" class="edge"><title>article1&#45;&#45;generate</title>
<path fill="none" stroke="black" d="M155.621,-143.697C168.022,-132.846 183.941,-118.917 196.298,-108.104"/>
</g>
<!-- website -->
<g id="node12" class="node"><title>website</title>
<polygon fill="none" stroke="black" points="244.846,-36 186.846,-36 186.846,-0 244.846,-0 244.846,-36"/>
<text text-anchor="middle" x="215.846" y="-14.3" font-family="Times,serif" font-size="14.00">website</text>
</g>
<!-- generate&#45;&#45;website -->
<g id="edge11" class="edge"><title>generate&#45;&#45;website</title>
<path fill="none" stroke="black" d="M215.846,-71.6966C215.846,-60.8463 215.846,-46.9167 215.846,-36.1043"/>
</g>
</g>
</svg>
