<svg xmlns="http://www.w3.org/2000/svg" width="640" height="200" viewBox="0 0 640 200" role="img" aria-labelledby="title desc">
  <title id="title">Blog logo</title>
  <desc id="desc">Generic blog logo with a rounded speech bubble icon and the word Blog.</desc>

  <defs>
    <linearGradient id="bg" x1="0" y1="0" x2="1" y2="1">
      <stop offset="0%" stop-color="#0f172a" />
      <stop offset="100%" stop-color="#1e293b" />
    </linearGradient>
    <linearGradient id="accent" x1="0" y1="0" x2="1" y2="1">
      <stop offset="0%" stop-color="#22d3ee" />
      <stop offset="100%" stop-color="#0ea5e9" />
    </linearGradient>
  </defs>

  <rect width="640" height="200" rx="28" fill="url(#bg)" />

  <g transform="translate(40 40)">
    <rect x="0" y="0" width="120" height="120" rx="24" fill="url(#accent)" />
    <path d="M28 35h64a10 10 0 0 1 10 10v36a10 10 0 0 1-10 10H58l-18 16v-16H28a10 10 0 0 1-10-10V45a10 10 0 0 1 10-10z" fill="#0f172a" />
    <circle cx="45" cy="63" r="5" fill="#22d3ee" />
    <circle cx="60" cy="63" r="5" fill="#22d3ee" />
    <circle cx="75" cy="63" r="5" fill="#22d3ee" />
  </g>

  <g fill="#f8fafc" font-family="Georgia, 'Times New Roman', serif" transform="translate(190 70)">
    <text x="0" y="62" font-size="84" font-weight="700" letter-spacing="1">Blog</text>
  </g>
</svg>
